<?xml version="1.0" standalone="no"?><!DOCTYPE svg PUBLIC "-//W3C//DTD SVG 20010904//EN" "http://www.w3.org/TR/2001/REC-SVG-20010904/DTD/svg10.dtd"><svg xmlns="http://www.w3.org/2000/svg" version="1.0" width="4697.000000pt" height="1500.000000pt" viewBox="0 0 4697.000000 1500.000000" preserveAspectRatio="xMidYMid meet">

<g transform="translate(0.000000,1500.000000) scale(0.100000,-0.100000)" fill="#b4b4b4" stroke="none">
<path d="M8610 14759 c-8 -17 -36 -68 -63 -113 -28 -44 -78 -129 -113 -188 l-63 -108 98 -182 c235 -437 2143 -3967 3144 -5818 236 -437 438 -807 449 -822 l19 -28 440 0 439 0 0 49 c0 89 -55 129 -240 176 -195 50 -240 76 -297 178 -22 39 -236 428 -475 862 -394 715 -675 1227 -1228 2230 -103 187 -298 540 -432 785 -135 245 -539 978 -899 1630 -359 652 -675 1229 -703 1282 -28 54 -54 98 -57 98 -4 0 -12 -14 -19 -31z"/>
<path d="M21090 14761 c49 -92 227 -143 563 -161 100 -5 184 -13 188 -17 4 -5 9 -287 12 -628 3 -341 11 -710 17 -820 21 -402 91 -1615 125 -2175 48 -802 74 -1422 75 -1759 l0 -103 -37 33 c-21 18 -357 341 -748 718 -1464 1413 -1582 1526 -2525 2406 -638 596 -2273 2113 -2379 2207 -29 26 -50 52 -46 58 13 22 94 60 179 84 97 29 368 84 541 112 61 9 117 21 125 26 9 6 -91 7 -259 4 -151 -3 -546 -6 -878 -6 -333 0 -603 -3 -601 -8 4 -10 648 -637 1343 -1307 545 -527 746 -719 2255 -2165 1613 -1545 2271 -2177 2878 -2765 210 -203 387 -372 393 -374 8 -2 9 122 5 425 -10 660 -25 1869 -36 2924 -5 525 -12 1149 -15 1385 -3 237 -5 766 -5 1178 l0 747 -590 0 c-580 0 -591 0 -580 -19z"/>
<path d="M22301 13968 c1 -447 5 -923 8 -1058 5 -222 7 -236 14 -150 42 492 211 1147 395 1531 95 199 234 374 337 426 35 18 132 43 215 56 14 3 -199 5 -472 6 l-498 1 1 -812z"/>
<path d="M30350 14770 c0 -21 63 -79 108 -98 77 -34 242 -62 415 -72 89 -5 179 -12 200 -16 l37 -6 0 -311 c0 -347 14 -916 30 -1222 17 -323 78 -1374 115 -1995 48 -803 65 -1168 73 -1590 4 -201 7 -366 6 -368 0 -1 -356 340 -790 759 -1550 1497 -1975 1899 -3679 3479 -263 245 -639 594 -835 775 -196 182 -373 345 -394 363 -24 21 -36 39 -32 48 9 23 122 71 232 100 54 14 209 45 344 70 135 24 252 46 260 48 8 2 -380 4 -862 4 -483 0 -878 -1 -878 -2 0 -13 1364 -1333 2625 -2541 2463 -2360 2937 -2814 3585 -3440 228 -221 471 -455 540 -521 l125 -119 3 125 c4 125 -10 1456 -29 2810 -5 393 -14 1388 -19 2210 -5 822 -10 1501 -10 1508 0 9 -124 12 -585 12 -369 0 -585 -4 -585 -10z"/>
<path d="M31570 13718 c0 -584 2 -1059 6 -1056 3 3 11 69 19 146 53 525 225 1162 411 1523 62 120 126 214 192 282 96 98 131 115 322 155 31 7 -111 10 -452 11 l-498 1 0 -1062z"/>
<path d="M14319 14723 c-10 -27 -130 -376 -144 -418 -6 -19 -5 -19 7 -1 7 10 33 48 57 85 55 84 106 137 155 163 36 18 53 20 185 16 121 -4 161 -10 236 -32 175 -53 284 -123 374 -240 l44 -57 8 -587 c11 -777 62 -2968 89 -3822 8 -257 26 -1366 33 -2070 l2 -195 530 4 c292 2 531 5 533 6 2 1 -1 24 -5 51 l-8 49 -220 5 c-145 4 -230 10 -250 19 -105 45 -177 166 -219 371 -44 217 -96 931 -126 1725 -29 789 -36 1866 -21 3407 l6 627 215 -191 c1050 -932 1898 -1746 4279 -4108 591 -586 1295 -1282 1565 -1547 l491 -483 122 0 123 0 0 218 0 217 -812 781 c-447 429 -1018 976 -1268 1214 -250 239 -732 700 -1070 1025 -1252 1202 -1772 1699 -2227 2129 -134 125 -420 413 -637 640 -486 507 -598 617 -706 688 -283 188 -667 304 -1068 323 -64 3 -150 8 -190 11 -72 5 -72 5 -83 -23z"/>
<path d="M23590 14738 c0 -2 -34 -103 -75 -223 -42 -120 -74 -220 -72 -222 2 -2 22 27 43 64 53 91 148 188 199 202 57 16 199 14 292 -4 220 -42 374 -127 480 -267 l40 -53 12 -725 c15 -932 51 -2450 87 -3680 8 -283 17 -893 20 -1355 3 -462 6 -856 8 -875 l2 -35 538 -3 c509 -2 537 -1 532 15 -2 10 -8 37 -11 61 l-7 42 -218 0 -218 0 -53 28 c-97 50 -168 189 -204 396 -19 113 -50 427 -70 706 -75 1089 -98 2635 -66 4613 l6 398 205 -182 c1084 -964 2204 -2041 4635 -4460 374 -372 909 -902 1190 -1178 l509 -501 128 0 128 0 0 143 c0 79 -3 178 -6 220 l-7 76 -821 788 c-452 434 -929 892 -1061 1018 -450 429 -909 869 -1660 1590 -793 762 -1445 1384 -1837 1754 -131 123 -358 350 -506 505 -678 710 -695 727 -841 823 -228 151 -531 254 -871 297 -124 16 -450 33 -450 24z"/>
<path d="M37510 14709 c-643 -54 -1228 -212 -1668 -451 -140 -76 -372 -228 -502 -329 -136 -105 -356 -323 -473 -469 -258 -321 -436 -660 -522 -994 -121 -474 -169 -873 -146 -1231 19 -293 57 -556 117 -805 79 -327 151 -520 320 -850 219 -429 452 -728 777 -997 91 -75 151 -117 371 -261 136 -88 698 -365 806 -397 14 -4 -33 33 -105 82 -430 292 -956 739 -1171 995 -343 409 -562 1038 -656 1888 -20 181 -17 735 5 885 93 640 313 1163 688 1636 120 152 382 409 526 517 460 344 995 528 1687 583 187 15 658 6 851 -15 276 -31 604 -80 750 -112 544 -119 1191 -482 1621 -909 158 -158 240 -257 355 -429 274 -411 478 -1036 544 -1661 21 -197 21 -573 0 -766 -73 -689 -328 -1306 -767 -1857 -175 -219 -438 -470 -724 -690 -43 -33 138 58 269 135 157 93 353 227 480 328 336 267 751 744 925 1063 201 366 319 739 367 1162 24 203 16 625 -14 825 -89 575 -299 1060 -667 1535 -110 143 -433 467 -577 580 -524 410 -1134 708 -1783 869 -256 63 -428 94 -709 127 -154 18 -814 27 -975 13z"/>
<path d="M39080 14309 c25 -11 87 -38 138 -61 184 -80 450 -244 636 -391 124 -98 369 -343 457 -457 322 -416 546 -954 635 -1525 15 -96 16 -159 11 -485 -9 -522 -33 -910 -77 -1257 -62 -486 -224 -911 -512 -1343 -125 -188 -207 -290 -343 -425 -239 -238 -380 -320 -849 -490 -471 -172 -637 -203 -1131 -212 -446 -8 -743 16 -1120 92 -487 97 -877 255 -1370 553 -276 168 -384 251 -539 420 -287 313 -484 595 -692 993 -167 320 -238 560 -291 979 -25 198 -25 794 0 970 102 713 360 1321 789 1858 120 150 389 422 506 512 45 35 82 65 82 67 0 11 -289 -160 -425 -250 -447 -299 -779 -662 -1034 -1131 -218 -401 -357 -819 -418 -1256 -24 -174 -24 -602 0 -748 60 -364 188 -738 374 -1092 239 -455 581 -935 857 -1203 167 -163 558 -427 801 -543 156 -74 505 -211 645 -253 321 -96 670 -139 1479 -183 217 -11 251 -11 490 10 342 29 570 74 852 171 240 81 305 109 539 228 518 263 943 621 1248 1049 96 135 258 409 336 568 235 479 349 966 363 1546 8 346 -11 575 -73 878 -95 466 -323 977 -589 1317 -117 150 -444 451 -679 625 -291 215 -671 389 -1015 465 -63 14 -117 25 -120 24 -3 0 14 -9 39 -20z"/>
<path d="M8243 14097 c-116 -211 -360 -672 -868 -1637 -916 -1740 -1282 -2419 -1681 -3112 -536 -932 -859 -1426 -1052 -1610 -76 -72 -86 -79 -169 -104 -98 -30 -123 -46 -123 -80 0 -57 -17 -54 355 -54 l342 0 26 58 c441 998 445 1008 614 1347 164 328 299 580 584 1085 l216 385 1644 0 1644 0 157 -280 c86 -154 422 -752 746 -1330 324 -577 587 -1052 585 -1055 -3 -3 -161 -14 -351 -25 l-347 -20 3 -40 c1 -22 5 -59 8 -83 l5 -42 687 6 c378 4 689 8 690 10 2 1 -39 74 -91 161 -431 723 -884 1560 -2152 3973 -635 1209 -924 1737 -1270 2325 -46 77 -93 161 -106 188 -13 26 -25 47 -28 47 -4 0 -34 -51 -68 -113z m235 -1234 c396 -784 707 -1396 930 -1832 106 -206 192 -378 192 -382 0 -5 -657 -9 -1480 -9 -1177 0 -1480 3 -1480 13 0 18 397 806 524 1042 144 266 366 654 546 955 191 320 472 770 480 770 3 0 133 -251 288 -557z"/>
<path d="M15310 9667 c0 -9 -7 -85 -16 -169 -59 -580 -251 -1251 -458 -1601 -102 -173 -193 -264 -303 -303 -29 -10 -53 -21 -53 -24 0 -3 189 -3 421 0 l420 5 -1 1049 c0 578 -3 1052 -5 1055 -3 2 -5 -3 -5 -12z"/>
<path d="M24578 9654 c-5 -4 -8 -23 -8 -43 0 -140 -63 -527 -130 -796 -165 -668 -383 -1106 -600 -1207 -30 -14 -66 -30 -80 -37 -19 -9 73 -10 399 -6 233 3 426 6 428 8 2 2 2 473 1 1046 -2 574 -6 1039 -10 1035z"/>
<path d="M5705 8772 c-170 -357 -578 -1262 -572 -1269 2 -2 226 -2 497 -1 l494 3 -60 37 c-131 81 -197 159 -245 289 -78 213 -88 520 -33 954 8 66 20 140 25 164 5 24 8 45 6 47 -2 2 -52 -98 -112 -224z"/>
<path d="M220 6550 l0 -190 23175 0 23175 0 0 190 0 190 -23175 0 -23175 0 0 -190z"/>
<path d="M9452 6075 l-54 -25 -4583 0 c-2521 0 -4590 -3 -4599 -6 -35 -14 -8 -91 67 -190 88 -116 213 -222 431 -365 235 -155 390 -219 535 -222 145 -3 172 16 124 86 -26 37 -28 48 -28 131 0 80 4 98 29 150 58 119 151 178 306 196 105 13 6938 12 7060 0 52 -5 151 -15 220 -20 130 -12 374 -63 471 -99 81 -31 218 -128 252 -179 23 -35 32 -41 43 -31 20 16 18 119 -3 163 -16 35 -16 36 16 98 65 130 50 246 -42 305 -34 22 -56 28 -117 31 -64 2 -83 -1 -128 -23z"/>
<path d="M37084 6081 c-57 -26 -96 -80 -102 -140 -6 -65 13 -147 45 -195 23 -36 25 -43 13 -70 -28 -70 -33 -100 -21 -144 13 -46 28 -50 47 -13 26 52 144 140 246 185 69 30 293 84 399 96 46 5 140 15 209 22 101 10 807 13 3655 13 l3530 0 72 -23 c94 -29 167 -94 209 -184 25 -54 29 -75 29 -149 0 -77 -3 -90 -28 -126 -48 -70 -21 -89 124 -86 143 3 290 63 529 218 215 139 350 254 442 378 65 88 89 147 68 172 -11 13 -492 15 -4600 15 l-4588 0 -54 25 c-67 31 -163 34 -224 6z"/>
<path d="M10153 6076 c-107 -35 -186 -106 -224 -202 -20 -50 -23 -77 -23 -174 0 -126 10 -171 57 -270 59 -121 269 -303 463 -400 121 -61 114 -44 114 -274 0 -145 -3 -170 -24 -232 -35 -104 -45 -121 -118 -220 -51 -70 -79 -99 -120 -122 -79 -45 -168 -65 -260 -59 -76 5 -238 51 -238 67 0 9 75 57 135 86 22 10 74 53 116 95 99 99 129 169 130 297 1 48 -2 105 -6 127 -12 61 -52 146 -88 183 -45 47 -146 101 -236 127 -386 112 -438 130 -496 179 l-30 25 32 33 c43 45 49 76 25 131 -37 82 -157 132 -394 163 -143 19 -760 30 -1006 19 -133 -6 -153 -9 -150 -23 2 -11 30 -23 88 -38 179 -46 317 -106 455 -198 87 -58 120 -87 157 -138 70 -96 132 -237 172 -393 19 -74 14 -289 -9 -380 -16 -64 -90 -222 -137 -292 -15 -24 -42 -64 -60 -90 -35 -53 -95 -120 -119 -133 -10 -6 -2 18 23 65 58 111 67 145 79 301 18 218 -10 405 -81 543 -27 53 -162 233 -192 257 -14 10 -65 54 -113 96 -154 137 -492 292 -790 363 -359 86 -672 115 -845 80 -117 -24 -288 -95 -378 -157 -74 -50 -181 -157 -227 -228 -48 -72 -88 -191 -106 -312 -35 -235 79 -436 326 -579 121 -70 346 -117 500 -105 93 8 286 49 365 79 94 35 225 180 256 285 17 54 18 202 3 257 -20 71 -67 159 -109 202 -50 53 -97 77 -220 116 -87 27 -104 29 -205 25 -125 -5 -170 -22 -224 -84 -41 -46 -51 -73 -51 -137 0 -76 18 -128 57 -164 74 -71 187 -66 260 10 23 23 43 53 45 66 3 27 47 46 81 35 59 -19 127 -128 127 -205 0 -49 -41 -164 -70 -194 -30 -32 -106 -61 -227 -85 -121 -24 -159 -25 -252 -5 -157 33 -297 105 -364 187 -73 90 -113 218 -104 328 7 85 60 228 107 291 71 94 241 188 385 212 40 7 172 12 310 12 260 0 295 -5 525 -67 124 -34 281 -90 318 -114 19 -13 22 -23 22 -82 0 -81 20 -120 76 -147 42 -20 115 -25 153 -11 16 5 21 5 17 -3 -12 -19 14 -90 39 -107 13 -8 46 -21 74 -29 86 -22 160 -67 220 -131 63 -67 84 -105 115 -209 31 -103 29 -342 -3 -434 -37 -106 -62 -151 -117 -210 l-53 -56 -1 56 c0 48 -5 62 -35 101 -39 52 -75 68 -149 68 -158 -1 -300 -166 -272 -315 10 -49 69 -113 136 -144 50 -24 66 -26 180 -25 151 0 202 14 411 110 161 74 322 179 414 269 112 110 187 295 200 495 5 66 1 115 -18 221 -22 122 -30 147 -81 245 -31 60 -78 138 -105 174 -28 36 -66 87 -87 113 l-37 48 29 -6 c16 -4 115 -35 219 -70 431 -143 787 -361 873 -535 25 -51 27 -63 25 -172 -2 -137 -7 -149 -99 -213 -31 -22 -73 -54 -93 -71 -35 -31 -35 -32 -18 -58 30 -46 143 -131 239 -179 79 -40 109 -50 203 -63 184 -27 363 1 493 77 84 50 225 194 240 245 9 30 12 198 12 602 0 501 -2 560 -16 566 -22 9 -96 -4 -114 -20 -27 -23 -119 -36 -214 -32 -77 4 -101 10 -161 38 -136 65 -205 165 -205 294 0 66 17 88 79 107 51 15 59 8 32 -30 -30 -42 -35 -81 -17 -143 23 -79 62 -110 187 -143 65 -17 66 -17 117 5 119 51 185 203 147 338 -23 80 -68 132 -151 173 -59 30 -76 33 -172 36 -72 2 -121 -2 -149 -11z"/>
<path d="M36357 6080 c-183 -46 -277 -207 -218 -375 34 -95 98 -158 182 -178 32 -8 147 24 195 53 39 25 68 75 79 138 6 35 3 49 -20 88 -15 25 -24 48 -21 51 8 8 77 -13 101 -31 14 -10 20 -29 23 -78 3 -55 0 -73 -25 -128 -36 -78 -76 -115 -179 -167 -78 -38 -79 -38 -199 -38 -102 0 -126 3 -160 21 -44 23 -108 36 -131 27 -12 -4 -14 -88 -14 -576 0 -554 1 -572 20 -613 28 -57 171 -192 247 -232 140 -74 315 -96 501 -64 99 18 123 26 205 72 101 58 175 115 209 162 l21 31 -35 31 c-20 17 -63 50 -96 73 -89 62 -94 72 -96 211 -1 107 1 122 25 172 60 126 252 269 539 403 161 75 442 178 549 202 l34 7 -47 -58 c-75 -94 -169 -243 -209 -329 -48 -107 -82 -302 -73 -425 12 -172 81 -354 174 -460 74 -85 265 -214 430 -290 195 -90 263 -110 393 -117 93 -5 114 -3 174 17 106 35 175 109 175 188 0 96 -75 208 -172 256 -66 33 -157 36 -205 6 -52 -31 -88 -95 -87 -154 l1 -50 -55 59 c-95 103 -142 244 -142 432 0 236 78 403 229 493 36 22 92 46 123 54 98 25 118 44 118 111 0 33 2 36 23 28 39 -14 110 -7 155 16 53 27 72 67 72 149 0 44 5 63 18 74 38 33 309 121 487 158 96 20 141 23 350 24 332 1 405 -13 569 -109 120 -70 186 -164 227 -322 24 -96 24 -131 -1 -229 -49 -192 -171 -297 -416 -359 -117 -30 -157 -31 -287 -5 -124 25 -196 53 -230 88 -30 32 -67 136 -67 189 0 87 67 192 133 208 35 9 77 -11 77 -36 0 -29 34 -74 77 -100 27 -17 52 -23 98 -23 113 -2 175 65 183 195 5 76 -16 129 -69 173 -60 50 -88 59 -204 64 -101 4 -118 2 -207 -26 -187 -58 -250 -112 -308 -264 -30 -79 -32 -88 -28 -198 3 -105 6 -120 33 -170 16 -30 64 -89 105 -131 86 -87 112 -100 305 -145 159 -37 346 -39 472 -6 126 34 185 58 267 113 110 74 179 149 229 248 41 82 42 88 45 198 5 144 -27 279 -91 391 -47 82 -162 200 -253 258 -84 54 -268 129 -360 148 -180 36 -486 8 -850 -79 -186 -45 -334 -100 -533 -198 -151 -75 -174 -91 -287 -189 -186 -164 -285 -308 -336 -493 -19 -70 -22 -104 -22 -275 1 -223 14 -287 84 -412 22 -37 36 -68 32 -68 -4 0 -29 21 -54 48 -80 82 -191 258 -244 387 -36 86 -51 173 -53 305 -2 98 2 128 24 204 37 127 92 250 148 334 97 142 334 279 612 352 213 57 123 70 -470 70 -682 0 -962 -61 -991 -215 -8 -44 3 -74 39 -108 l31 -28 -30 -25 c-16 -14 -52 -36 -80 -49 -44 -20 -264 -89 -423 -132 -62 -17 -136 -52 -198 -95 -31 -21 -51 -47 -78 -101 -63 -127 -68 -284 -14 -405 36 -80 153 -201 227 -235 57 -26 122 -68 122 -79 0 -14 -160 -60 -231 -65 -95 -7 -195 15 -271 60 -75 46 -176 183 -223 304 l-35 93 0 184 c0 101 3 192 6 201 4 9 36 29 72 46 173 78 428 290 490 406 79 150 92 339 32 479 -28 63 -81 117 -156 155 -62 31 -75 34 -168 36 -56 1 -118 -2 -139 -7z"/>
<path d="M4565 5693 c-43 -22 -64 -42 -92 -87 -33 -51 -42 -83 -53 -181 -19 -177 53 -312 215 -402 49 -27 54 -28 200 -28 243 1 315 34 520 241 174 176 267 242 407 293 76 28 303 89 373 101 33 6 71 15 85 21 23 10 24 11 6 21 -25 14 -281 2 -385 -17 -42 -8 -88 -15 -103 -15 -42 0 -286 -74 -368 -112 -47 -22 -118 -70 -190 -128 -63 -51 -144 -107 -180 -124 -59 -28 -74 -31 -160 -31 -110 0 -153 15 -158 55 -3 23 3 28 52 44 167 57 180 246 23 336 -60 35 -141 40 -192 13z"/>
<path d="M18830 5695 c-293 -37 -558 -111 -777 -215 -140 -68 -355 -214 -445 -303 -129 -127 -210 -271 -242 -429 -28 -137 -16 -347 26 -453 6 -16 32 -66 57 -110 35 -63 75 -110 189 -223 80 -79 170 -160 201 -179 31 -20 106 -69 166 -108 160 -105 257 -155 467 -239 255 -102 479 -173 758 -240 575 -139 731 -181 896 -242 185 -67 224 -85 352 -162 163 -98 443 -349 518 -465 118 -182 183 -382 184 -564 0 -29 4 -53 9 -53 8 0 13 32 31 215 19 183 -22 426 -98 588 -125 267 -389 531 -713 712 -174 98 -238 120 -539 180 -179 35 -336 74 -450 109 -272 86 -883 293 -979 332 -178 73 -427 218 -536 310 -137 118 -195 210 -241 390 -31 121 -28 200 14 308 40 102 92 177 196 282 209 211 452 317 861 376 140 20 578 17 745 -5 182 -24 332 -59 420 -96 311 -132 648 -540 714 -863 20 -98 21 -303 1 -396 -32 -153 -99 -285 -211 -417 -117 -136 -213 -223 -286 -259 l-67 -33 89 -26 c49 -15 97 -27 107 -27 30 0 153 64 223 115 96 70 296 277 368 380 202 287 248 553 146 852 -130 379 -278 541 -669 729 -215 104 -462 179 -715 220 -142 22 -621 28 -770 9z"/>
<path d="M42015 5689 c-54 -29 -83 -57 -106 -101 -49 -96 3 -205 117 -244 54 -18 62 -30 44 -64 -14 -25 -99 -43 -179 -38 -97 7 -173 46 -310 156 -71 58 -145 108 -191 129 -81 38 -325 113 -368 113 -15 0 -62 7 -104 15 -99 19 -368 30 -388 16 -8 -5 -12 -12 -9 -15 3 -3 48 -14 100 -25 126 -25 371 -96 437 -126 97 -45 195 -119 321 -246 148 -147 187 -179 273 -219 118 -55 375 -68 464 -22 152 78 229 204 225 372 -4 193 -87 310 -226 317 -46 3 -69 -2 -100 -18z"/>
<path d="M14281 5664 c-61 -16 -133 -53 -268 -139 l-93 -59 0 -2518 0 -2518 575 0 575 0 -12 24 c-6 14 -22 29 -37 35 -21 8 -625 81 -669 81 -10 0 -13 476 -12 2551 1 1403 0 2552 -2 2554 -1 1 -27 -4 -57 -11z"/>
<path d="M25475 5669 c-193 -14 -354 -68 -546 -182 -256 -153 -445 -314 -577 -492 -214 -289 -421 -907 -487 -1455 -23 -188 -31 -564 -16 -742 38 -444 172 -910 358 -1243 128 -230 338 -480 543 -645 100 -80 209 -154 217 -147 2 3 -17 22 -42 43 -195 162 -434 613 -539 1017 -125 482 -175 1590 -100 2217 75 627 279 1030 662 1308 125 90 307 177 412 198 109 22 355 15 520 -15 263 -46 413 -109 580 -244 145 -118 376 -336 455 -432 344 -416 538 -907 606 -1535 16 -146 16 -558 0 -715 -52 -519 -201 -991 -442 -1401 -88 -150 -210 -325 -286 -409 -39 -44 -70 -82 -67 -84 20 -20 317 253 436 400 83 103 383 524 452 634 200 321 293 682 303 1180 15 715 -126 1262 -432 1670 -161 215 -452 521 -640 672 -303 244 -605 368 -985 402 -129 12 -210 12 -385 0z"/>
<path d="M32230 5673 c-216 -10 -380 -57 -565 -163 -353 -202 -590 -426 -729 -690 -99 -188 -219 -521 -286 -795 -187 -760 -148 -1507 112 -2169 92 -234 203 -428 356 -621 72 -91 254 -269 356 -349 78 -61 176 -126 190 -126 4 0 -23 28 -59 62 -255 238 -498 766 -574 1248 -57 358 -76 664 -76 1255 0 561 7 667 65 955 103 515 286 825 635 1075 104 75 264 157 350 181 145 39 446 26 696 -30 263 -60 378 -133 715 -451 196 -186 330 -357 459 -584 309 -547 427 -1327 314 -2074 -66 -445 -210 -849 -433 -1225 -90 -150 -192 -294 -270 -381 -179 -199 86 10 289 228 99 106 434 563 539 735 232 380 335 894 297 1481 -35 544 -155 954 -376 1285 -125 187 -458 548 -665 722 -250 210 -518 342 -805 398 -178 34 -323 43 -535 33z"/>
<path d="M13775 5376 c-22 -13 -227 -132 -455 -266 -627 -366 -842 -498 -872 -533 -19 -20 -28 -43 -28 -64 0 -18 1 -33 3 -33 2 0 194 96 428 213 386 195 502 245 597 261 l32 6 0 -1905 c0 -2047 1 -2018 -51 -2220 -26 -103 -82 -232 -115 -266 -30 -32 -104 -63 -186 -79 l-58 -11 0 -41 0 -40 268 5 c217 3 278 8 324 22 64 20 129 70 147 112 8 21 11 645 9 2445 l-3 2418 -40 -24z"/>
<path d="M7455 5300 c3 -5 11 -10 16 -10 6 0 7 5 4 10 -3 6 -11 10 -16 10 -6 0 -7 -4 -4 -10z"/>
<path d="M39285 5300 c-3 -5 -1 -10 4 -10 6 0 11 5 11 10 0 6 -2 10 -4 10 -3 0 -8 -4 -11 -10z"/>
<path d="M24357 5189 c-122 -88 -333 -291 -438 -421 -130 -162 -242 -364 -374 -679 -93 -221 -154 -439 -191 -681 -21 -141 -30 -561 -15 -714 47 -471 180 -833 427 -1162 135 -179 469 -508 699 -687 376 -293 748 -423 1265 -441 205 -8 297 5 460 61 123 43 193 78 277 137 495 348 906 1215 984 2078 15 165 15 506 0 650 -39 369 -128 699 -271 998 -132 274 -275 477 -485 688 -114 114 -255 234 -277 234 -5 0 23 -41 61 -91 101 -135 154 -227 230 -405 229 -531 331 -1060 331 -1718 0 -525 -64 -976 -206 -1460 -114 -388 -235 -634 -389 -789 -76 -77 -119 -104 -242 -153 -148 -60 -274 -85 -468 -91 -386 -12 -679 81 -992 316 -262 197 -468 449 -636 779 -162 318 -248 605 -303 1002 -22 159 -30 630 -15 813 57 663 307 1363 621 1735 33 39 57 72 53 72 -4 0 -52 -32 -106 -71z"/>
<path d="M31069 5201 c-196 -137 -429 -378 -561 -581 -129 -197 -308 -595 -377 -836 -77 -266 -104 -474 -105 -789 -1 -500 77 -844 277 -1220 100 -189 230 -347 500 -611 428 -419 725 -603 1132 -699 220 -52 568 -79 727 -56 158 22 369 104 501 193 77 52 240 209 320 308 288 357 536 945 626 1485 38 226 46 335 45 620 0 368 -29 583 -120 899 -148 510 -460 986 -836 1277 -93 71 -125 84 -71 26 43 -45 145 -191 187 -268 54 -99 138 -299 195 -464 303 -877 307 -1955 10 -2943 -147 -489 -313 -758 -535 -870 -195 -98 -401 -138 -669 -129 -183 6 -305 28 -455 82 -265 96 -547 300 -752 545 -247 293 -455 717 -543 1110 -163 721 -111 1497 146 2185 113 303 266 580 406 735 25 28 44 53 41 55 -2 3 -42 -22 -89 -54z"/>
<path d="M7565 4936 c-29 -29 -49 -98 -41 -141 8 -42 45 -96 76 -113 34 -18 104 -8 165 24 40 20 59 24 95 19 74 -10 140 -35 176 -67 72 -63 165 -272 179 -401 9 -77 28 -63 44 32 15 97 14 198 -4 259 -20 66 -89 165 -160 230 -102 93 -319 181 -448 182 -48 0 -62 -4 -82 -24z"/>
<path d="M38986 4944 c-94 -23 -256 -106 -320 -165 -66 -60 -135 -155 -159 -217 -30 -76 -15 -348 20 -359 7 -3 14 19 18 59 14 124 83 289 157 373 42 48 107 78 193 89 42 6 57 3 97 -18 68 -36 134 -42 175 -17 18 11 40 35 49 53 34 64 14 181 -35 208 -27 14 -124 11 -195 -6z"/>
<path d="M17275 4658 c-2 -7 -12 -62 -21 -123 -22 -145 -15 -387 14 -490 98 -348 339 -633 730 -864 166 -98 244 -127 617 -231 597 -166 1059 -310 1240 -384 236 -98 574 -298 692 -409 162 -152 253 -377 240 -592 -13 -218 -166 -530 -338 -689 -81 -76 -133 -110 -252 -166 -126 -60 -291 -111 -462 -142 -118 -21 -158 -23 -435 -23 -327 1 -431 10 -679 61 -380 78 -711 243 -870 433 -84 101 -224 356 -284 516 -135 358 -100 712 100 1014 99 150 396 426 499 463 19 7 34 14 34 18 0 11 -161 95 -177 92 -66 -14 -269 -138 -379 -232 -119 -103 -428 -417 -486 -494 -187 -250 -222 -502 -117 -833 42 -131 135 -325 213 -443 77 -115 225 -262 347 -343 282 -187 694 -319 1159 -372 419 -47 1015 -23 1349 55 113 27 344 103 454 151 365 158 591 403 652 708 22 108 17 440 -9 569 -41 201 -115 351 -241 481 -152 158 -389 346 -524 415 -58 31 -358 139 -461 167 -58 16 -217 56 -355 89 -463 112 -539 132 -705 185 -206 67 -515 190 -640 257 -83 43 -168 97 -379 236 -66 44 -283 257 -339 332 -56 75 -126 227 -151 327 -13 51 -22 119 -23 178 -1 92 -4 109 -13 83z"/>
<path d="M9525 4056 c-67 -31 -159 -116 -179 -166 -47 -117 -59 -288 -27 -389 29 -93 61 -139 170 -244 84 -80 116 -103 188 -138 49 -22 104 -49 123 -59 19 -10 80 -32 135 -49 55 -17 180 -69 278 -114 182 -84 253 -131 319 -215 39 -48 44 -76 23 -122 l-18 -40 -38 35 c-21 19 -50 37 -64 41 -77 19 -185 -32 -223 -106 -20 -38 -23 -56 -19 -115 3 -60 11 -85 57 -175 87 -173 140 -240 275 -345 97 -76 108 -81 168 -90 l47 -7 16 38 c14 33 18 124 27 604 5 311 7 586 3 613 l-7 47 -187 0 c-364 0 -544 38 -767 161 -164 90 -228 152 -295 284 -27 54 -31 72 -33 155 -2 107 9 122 58 76 33 -31 94 -42 132 -24 15 7 43 38 61 68 61 100 34 188 -81 265 -61 41 -76 42 -142 11z"/>
<path d="M37104 4054 c-54 -36 -93 -74 -110 -106 -42 -80 19 -228 101 -244 35 -6 110 20 119 42 3 8 14 14 25 14 30 0 36 -39 23 -138 -12 -89 -31 -132 -103 -229 -91 -123 -386 -277 -579 -303 -47 -6 -115 -15 -152 -21 -37 -5 -152 -9 -257 -9 l-190 0 -7 -37 c-4 -21 -3 -299 3 -619 12 -673 9 -651 91 -639 89 12 274 160 356 284 25 37 67 112 93 167 44 91 48 105 48 174 0 93 -20 132 -90 175 -40 25 -59 30 -111 30 -60 0 -65 -2 -103 -39 l-41 -40 -15 37 c-22 53 -18 77 18 124 54 72 137 134 247 185 202 96 276 127 365 153 50 15 106 35 125 46 19 10 69 34 112 54 83 38 238 167 302 251 77 101 103 247 71 404 -22 109 -52 167 -112 219 -54 47 -136 91 -169 91 -11 0 -39 -12 -60 -26z"/>
</g>
</svg>